<?xml version="1.0" encoding="UTF-8"?>
<svg xmlns="http://www.w3.org/2000/svg" viewBox="-225 -210 450 420" width="32" height="32">
    <path
        fill="#ffffff"
        fill-rule="evenodd"
        d="M210.627,48.995 C205.33,26.815 197.881,7.615 189.109,-9.268 C189.109,-9.268 189.274,-9.268 189.274,-9.268 C189.274,-9.268 201.854,-188.695 169.577,-196.806 C143.094,-203.427 73.74,-109.907 58.015,-113.714 C35.173,-120.169 15.311,-122.154 2.4,-122.154 C2.4,-122.154 -2.4,-122.154 -2.4,-122.154 C-15.145,-122.154 -35.173,-120.169 -57.85,-113.714 C-73.574,-110.072 -142.928,-203.427 -169.412,-196.806 C-201.688,-188.695 -189.109,-9.268 -189.109,-9.268 C-198.047,7.615 -205.33,26.981 -210.627,48.995 C-221.717,95.507 -114.789,203.427 -2.4,203.427 C-2.4,203.427 2.4,203.427 2.4,203.427 C114.789,203.427 221.717,95.507 210.627,48.995z M-51.395,80.279 C-62.154,96.666 -107.341,93.024 -122.9,65.382 C-140.611,33.933 -119.259,23.505 -96.251,27.974 C-57.85,35.588 -40.801,63.892 -51.395,80.279z M29.049,124.142 C26.732,131.591 9.352,146.322 -1.241,146.322 C-1.241,146.322 -2.731,146.322 -2.731,146.322 C-13.325,146.322 -30.704,131.591 -33.022,124.142 C-35.339,116.694 -21.27,113.052 -2.731,113.052 C-2.731,113.052 -1.241,113.052 -1.241,113.052 C17.463,113.052 31.366,116.694 29.049,124.142z M119.093,65.382 C103.534,93.024 58.346,96.666 47.588,80.279 C36.829,63.892 53.877,35.754 92.444,28.14 C115.617,23.505 136.804,33.933 119.093,65.382z"
    />
</svg>
